<?xml version="1.0" encoding="utf-8"?>
<!-- Generator: Adobe Illustrator 24.3.0, SVG Export Plug-In . SVG Version: 6.00 Build 0)  -->
<svg version="1.1" id="Layer_1" xmlns="http://www.w3.org/2000/svg" xmlns:xlink="http://www.w3.org/1999/xlink" x="0px" y="0px"
	 viewBox="0 0 298.4 64.9" style="enable-background:new 0 0 298.4 64.9;" xml:space="preserve">
<g>
	<path d="M194.2,22.2c1.6,1.6,3,2.9,4.4,4.3c4.8-4.8,9.8-9.7,14.7-14.6c8.9,10,10.6,27.9,0.1,40.7C201.6,67,181.3,68.2,168,57
		c-13.9-11.7-15.4-32.1-3.9-45.6c11.5-13.5,31.5-15.2,45.1-3.8C204.2,12.4,199.2,17.3,194.2,22.2z"/>
	<path d="M228.6,45.7c0-3.6-0.1-7,0-10.5c0.1-4.3,2.4-6.4,7-6.4c7.1,0,32.9,0,38.7,0c2.3,0,2.8-0.5,2.8-2.8c0-0.2,0-0.5,0-0.7
		c0-1.2-0.5-1.9-1.7-1.9c-3.1-0.1-6.1-0.1-9.2-0.1c-12,0-37,0-37.7,0c0-1.8,0-3.4,0-5.1c0-0.2,0.6-0.6,0.9-0.6
		c2.8-0.1,33.6,0,46.2,0c0.9,0,1.8,0.1,2.7,0.3c2.2,0.5,3.8,1.8,4.1,4c0.3,2.6,0.5,5.3,0.1,7.8c-0.5,3.4-2.6,4.9-6.1,4.9
		c-13.1,0-26.2,0-39.3,0c-0.5,0-0.9,0-1.4,0.1c-0.9,0.2-1.4,0.8-1.5,1.7c0,1.2,0,2.4,0,3.8c16.1,0,32.2,0,48.4,0c0,1.9,0,3.7,0,5.6
		C264.7,45.7,246.7,45.7,228.6,45.7z"/>
	<path d="M69.8,40.2c0,1.9,0,3.7,0,5.6c-0.4,0-0.7,0.1-1.1,0.1c-15.5,0-31.1,0-46.6,0c-1.7,0-3.3-0.3-4.6-1.6
		c-1.3-1.3-1.7-2.9-1.8-4.6c-0.1-5.3-0.2-10.6,0-15.9c0.1-4.2,2.2-6.1,6.9-6.1c12.1-0.1,42.8,0,46.1,0c0.9,0,1.2,0.3,1.1,1.1
		c-0.1,1.4,0,2.9,0,4.5c-0.5,0-45.9,0-46.3,0c-1.6,0.1-2.2,0.8-2.2,2.4c0,4.1,0,8.1,0,12.2c0,1.9,0.6,2.5,2.5,2.5
		C35.4,40.2,66,40.2,69.8,40.2z"/>
	<path d="M111.8,45.7c0-7.5,0-14.9,0-22.4c-9.4,0-18.7,0-28.1,0c0-2,0-3.8,0-5.7c20.9,0,41.9,0,63,0c0,1.8,0,3.6,0,5.5
		c-9.3,0-18.6,0-28,0c0,7.6,0,15.1,0,22.6C116.4,45.7,114.1,45.7,111.8,45.7z"/>
</g>
</svg>
